HIERARCHY
ROOT Hips
{
	OFFSET 0.000000 100.481300 0.000000
	CHANNELS 6 Xposition Yposition Zposition Xrotation Yrotation Zrotation 
	JOINT Spine
	{
		OFFSET -0.279200 12.230698 -2.892100
		CHANNELS 3 Xrotation Yrotation Zrotation
		JOINT Spine1
		{
			OFFSET -0.232667 10.192268 -1.242267
			CHANNELS 3 Xrotation Yrotation Zrotation
			JOINT Spine1_split
			{
				OFFSET -0.232667 10.192268 -1.242267
				CHANNELS 3 Xrotation Yrotation Zrotation
				JOINT Spine2
				{
					OFFSET -0.232667 10.192268 -1.242267
					CHANNELS 3 Xrotation Yrotation Zrotation
					JOINT Neck
					{
						OFFSET -0.418800 17.814194 8.416900
						CHANNELS 3 Xrotation Yrotation Zrotation
						JOINT Head
						{
							OFFSET 0.000000 7.031097 3.806800
							CHANNELS 3 Xrotation Yrotation Zrotation
							JOINT HeadTop_End
							{
								OFFSET 0.000000 24.646606 12.978600
								CHANNELS 3 Xrotation Yrotation Zrotation
								End Site
								{
									OFFSET 0.000000 0.000000 0.000000
								}
							}
						}
					}
					JOINT LeftShoulder
					{
						OFFSET 8.476499 7.247704 -3.868750
						CHANNELS 3 Xrotation Yrotation Zrotation
						JOINT LeftShoulder_split
						{
							OFFSET 8.476499 7.247704 -3.868750
							CHANNELS 3 Xrotation Yrotation Zrotation
							JOINT LeftArm
							{
								OFFSET 9.308998 -2.777710 0.208600
								CHANNELS 3 Xrotation Yrotation Zrotation
								JOINT LeftForeArm
								{
									OFFSET 29.972298 0.000000 0.000000
									CHANNELS 3 Xrotation Yrotation Zrotation
									JOINT LeftHand
									{
										OFFSET 26.026505 0.000000 0.000000
										CHANNELS 3 Xrotation Yrotation Zrotation
										JOINT LeftHandThumb1
										{
											OFFSET 12.240501 -7.147949 9.207150
											CHANNELS 3 Xrotation Yrotation Zrotation
											JOINT LeftHandThumb2
											{
												OFFSET 4.138618 -2.389435 2.389433
												CHANNELS 3 Xrotation Yrotation Zrotation
												JOINT LeftHandThumb3
												{
													OFFSET 2.726913 -1.574387 1.574386
													CHANNELS 3 Xrotation Yrotation Zrotation
													JOINT LeftHandThumb4
													{
														OFFSET 3.941010 -2.275345 2.275342
														CHANNELS 3 Xrotation Yrotation Zrotation
														End Site
														{
															OFFSET 0.000000 0.000000 0.000000
														}
													}
												}
											}
										}
										JOINT LeftHandIndex1
										{
											OFFSET 24.424698 -1.985611 5.953459
											CHANNELS 3 Xrotation Yrotation Zrotation
											JOINT LeftHandIndex2
											{
												OFFSET 6.426697 0.000000 0.000000
												CHANNELS 3 Xrotation Yrotation Zrotation
												JOINT LeftHandIndex3
												{
													OFFSET 5.337898 0.000000 0.000000
													CHANNELS 3 Xrotation Yrotation Zrotation
													JOINT LeftHandIndex4
													{
														OFFSET 4.409401 0.000000 0.000000
														CHANNELS 3 Xrotation Yrotation Zrotation
														End Site
														{
															OFFSET 0.000000 0.000000 0.000000
														}
													}
												}
											}
										}
										JOINT LeftHandMiddle1
										{
											OFFSET 23.810104 0.000000 0.000000
											CHANNELS 3 Xrotation Yrotation Zrotation
											JOINT LeftHandMiddle2
											{
												OFFSET 7.176498 0.000000 0.000000
												CHANNELS 3 Xrotation Yrotation Zrotation
												JOINT LeftHandMiddle3
												{
													OFFSET 6.774902 0.000000 0.000000
													CHANNELS 3 Xrotation Yrotation Zrotation
													JOINT LeftHandMiddle4
													{
														OFFSET 5.403328 0.000000 0.000000
														CHANNELS 3 Xrotation Yrotation Zrotation
														End Site
														{
															OFFSET 0.000000 0.000000 0.000000
														}
													}
												}
											}
										}
										JOINT LeftHandRing1
										{
											OFFSET 22.908401 -0.839279 -6.020567
											CHANNELS 3 Xrotation Yrotation Zrotation
											JOINT LeftHandRing2
											{
												OFFSET 6.337502 0.000000 0.000000
												CHANNELS 3 Xrotation Yrotation Zrotation
												JOINT LeftHandRing3
												{
													OFFSET 5.779297 0.000000 0.000000
													CHANNELS 3 Xrotation Yrotation Zrotation
													JOINT LeftHandRing4
													{
														OFFSET 4.965698 0.000000 0.000000
														CHANNELS 3 Xrotation Yrotation Zrotation
														End Site
														{
															OFFSET 0.000000 0.000000 0.000000
														}
													}
												}
											}
										}
										JOINT LeftHandPinky1
										{
											OFFSET 20.037003 -1.530319 -10.950146
											CHANNELS 3 Xrotation Yrotation Zrotation
											JOINT LeftHandPinky2
											{
												OFFSET 5.254700 0.000000 0.000000
												CHANNELS 3 Xrotation Yrotation Zrotation
												JOINT LeftHandPinky3
												{
													OFFSET 4.810204 0.000000 0.000000
													CHANNELS 3 Xrotation Yrotation Zrotation
													JOINT LeftHandPinky4
													{
														OFFSET 3.647202 0.000000 0.000000
														CHANNELS 3 Xrotation Yrotation Zrotation
														End Site
														{
															OFFSET 0.000000 0.000000 0.000000
														}
													}
												}
											}
										}
									}
								}
							}
						}
					}
					JOINT RightShoulder
					{
						OFFSET -7.570500 7.247704 -3.868750
						CHANNELS 3 Xrotation Yrotation Zrotation
						JOINT RightShoulder_split
						{
							OFFSET -7.570500 7.247704 -3.868750
							CHANNELS 3 Xrotation Yrotation Zrotation
							JOINT RightArm
							{
								OFFSET -9.308998 -2.777710 0.208500
								CHANNELS 3 Xrotation Yrotation Zrotation
								JOINT RightForeArm
								{
									OFFSET -29.972300 0.000000 0.000000
									CHANNELS 3 Xrotation Yrotation Zrotation
									JOINT RightHand
									{
										OFFSET -26.026505 0.000000 0.000000
										CHANNELS 3 Xrotation Yrotation Zrotation
										JOINT RightHandThumb1
										{
											OFFSET -12.240601 -7.148026 9.207092
											CHANNELS 3 Xrotation Yrotation Zrotation
											JOINT RightHandThumb2
											{
												OFFSET -4.138618 -2.389435 2.389433
												CHANNELS 3 Xrotation Yrotation Zrotation
												JOINT RightHandThumb3
												{
													OFFSET -2.726974 -1.574417 1.574421
													CHANNELS 3 Xrotation Yrotation Zrotation
													JOINT RightHandThumb4
													{
														OFFSET -3.941010 -2.275345 2.275343
														CHANNELS 3 Xrotation Yrotation Zrotation
														End Site
														{
															OFFSET 0.000000 0.000000 0.000000
														}
													}
												}
											}
										}
										JOINT RightHandIndex1
										{
											OFFSET -24.424698 -1.985657 5.953444
											CHANNELS 3 Xrotation Yrotation Zrotation
											JOINT RightHandIndex2
											{
												OFFSET -6.426697 0.000000 0.000000
												CHANNELS 3 Xrotation Yrotation Zrotation
												JOINT RightHandIndex3
												{
													OFFSET -5.337898 0.000000 0.000000
													CHANNELS 3 Xrotation Yrotation Zrotation
													JOINT RightHandIndex4
													{
														OFFSET -4.409401 0.000000 0.000000
														CHANNELS 3 Xrotation Yrotation Zrotation
														End Site
														{
															OFFSET 0.000000 0.000000 0.000000
														}
													}
												}
											}
										}
										JOINT RightHandMiddle1
										{
											OFFSET -23.810097 0.000000 0.000000
											CHANNELS 3 Xrotation Yrotation Zrotation
											JOINT RightHandMiddle2
											{
												OFFSET -7.176498 0.000000 0.000000
												CHANNELS 3 Xrotation Yrotation Zrotation
												JOINT RightHandMiddle3
												{
													OFFSET -6.774902 0.000000 0.000000
													CHANNELS 3 Xrotation Yrotation Zrotation
													JOINT RightHandMiddle4
													{
														OFFSET -5.403328 0.000000 0.000000
														CHANNELS 3 Xrotation Yrotation Zrotation
														End Site
														{
															OFFSET 0.000000 0.000000 0.000000
														}
													}
												}
											}
										}
										JOINT RightHandRing1
										{
											OFFSET -22.908302 -0.839325 -6.020576
											CHANNELS 3 Xrotation Yrotation Zrotation
											JOINT RightHandRing2
											{
												OFFSET -6.337502 0.000000 0.000000
												CHANNELS 3 Xrotation Yrotation Zrotation
												JOINT RightHandRing3
												{
													OFFSET -5.779297 0.000000 0.000000
													CHANNELS 3 Xrotation Yrotation Zrotation
													JOINT RightHandRing4
													{
														OFFSET -4.965698 0.000000 0.000000
														CHANNELS 3 Xrotation Yrotation Zrotation
														End Site
														{
															OFFSET 0.000000 0.000000 0.000000
														}
													}
												}
											}
										}
										JOINT RightHandPinky1
										{
											OFFSET -20.037003 -1.530334 -10.950259
											CHANNELS 3 Xrotation Yrotation Zrotation
											JOINT RightHandPinky2
											{
												OFFSET -5.254700 0.000000 0.000000
												CHANNELS 3 Xrotation Yrotation Zrotation
												JOINT RightHandPinky3
												{
													OFFSET -4.810204 0.000000 0.000000
													CHANNELS 3 Xrotation Yrotation Zrotation
													JOINT RightHandPinky4
													{
														OFFSET -3.647202 0.000000 0.000000
														CHANNELS 3 Xrotation Yrotation Zrotation
														End Site
														{
															OFFSET 0.000000 0.000000 0.000000
														}
													}
												}
											}
										}
									}
								}
							}
						}
					}
				}
			}
		}
	}
	JOINT LeftUpLeg
	{
		OFFSET 15.427100 -6.655098 0.678600
		CHANNELS 3 Xrotation Yrotation Zrotation
		JOINT LeftLeg
		{
			OFFSET 4.081073 -39.591068 13.024000
			CHANNELS 3 Xrotation Yrotation Zrotation
			JOINT LeftFoot
			{
				OFFSET -4.081074 -37.707932 -15.979700
				CHANNELS 3 Xrotation Yrotation Zrotation
				JOINT LeftToeBase
				{
					OFFSET 5.346399 -15.068900 20.645000
					CHANNELS 3 Xrotation Yrotation Zrotation
					JOINT LeftToe_End
					{
						OFFSET 2.754700 0.931300 11.300900
						CHANNELS 3 Xrotation Yrotation Zrotation
						End Site
						{
							OFFSET 0.000000 0.000000 0.000000
						}
					}
				}
			}
		}
	}
	JOINT RightUpLeg
	{
		OFFSET -15.569500 -6.655098 0.678600
		CHANNELS 3 Xrotation Yrotation Zrotation
		JOINT RightLeg
		{
			OFFSET -4.081825 -39.591045 13.023800
			CHANNELS 3 Xrotation Yrotation Zrotation
			JOINT RightFoot
			{
				OFFSET 4.081824 -37.707954 -15.979600
				CHANNELS 3 Xrotation Yrotation Zrotation
				JOINT RightToeBase
				{
					OFFSET -5.346400 -15.068900 20.645000
					CHANNELS 3 Xrotation Yrotation Zrotation
					JOINT RightToe_End
					{
						OFFSET -2.754700 0.931300 11.300900
						CHANNELS 3 Xrotation Yrotation Zrotation
						End Site
						{
							OFFSET 0.000000 0.000000 0.000000
						}
					}
				}
			}
		}
	}
}
MOTION
Frames: 5
Frame Time: 0.016667
27.183292 84.089920 7.220947 154.051543 -64.075234 159.997291 10.360577 -3.023092 1.939745 5.441881 -1.990673 -3.512881 0.000000 0.000000 0.000000 -3.218480 -5.241820 -2.484907 6.043349 13.386871 -0.965032 -12.384983 14.668041 -5.260449 0.000002 -0.000000 -0.000000 -1.837974 -14.467493 -4.296787 0.000000 0.000000 0.000000 -24.431877 -9.271225 -47.099229 -14.226241 -27.309265 -17.570289 3.474901 -7.760234 6.842563 20.212987 -4.649849 10.411163 3.371791 17.053172 -9.307512 9.278270 14.738792 -1.340749 -0.000000 -0.000000 0.000003 -0.754213 0.208580 -13.245169 0.030480 -0.759502 -17.420377 -0.102863 -1.044115 -20.385640 0.000000 0.000001 -0.000001 2.446931 2.844475 -23.035272 -0.021037 -2.027859 -31.425157 0.012575 -2.399550 -34.994375 -0.000001 0.000001 -0.000002 0.752486 4.505545 -30.750260 -0.981906 -1.227422 -35.970932 -1.038287 -1.357733 -39.134706 -0.000000 -0.000001 0.000001 -1.632798 3.694655 -37.232734 -0.950073 -0.779054 -32.064572 -2.238898 -0.225170 -50.000256 0.000002 -0.000001 0.000002 -5.499246 24.268045 2.019077 0.000000 0.000000 0.000000 -13.675011 -20.288508 57.835160 13.715969 34.549440 -4.170652 13.832384 22.666556 12.809473 55.149570 18.649587 -29.698328 -0.442548 -14.180555 7.313151 21.666969 -29.244507 9.142365 -0.000001 -0.000002 0.000004 5.673406 7.585016 36.844158 1.050419 3.824517 68.900257 0.499583 3.026022 62.196447 -0.000001 -0.000002 0.000001 -0.125693 1.886108 45.000753 -1.169030 3.204655 68.417684 -0.936416 1.813618 41.107545 -0.000001 0.000001 -0.000001 -5.312005 1.216647 58.508794 -0.745222 1.667566 48.011285 -0.816496 1.840591 53.666555 -0.000000 0.000000 -0.000004 -7.756806 -9.376454 47.264001 -0.526055 1.541599 45.600511 -0.508192 0.803474 24.986625 -0.000001 -0.000000 -0.000001 -57.973116 43.243598 55.941968 36.466004 -12.427217 -5.278619 4.713212 8.456874 -1.139033 -0.495547 11.592364 -9.275463 -0.000000 0.000003 -0.000000 -41.254452 -13.546820 -31.145519 41.251696 -3.274121 6.211300 -9.670105 -4.376952 11.608756 0.624368 3.639667 0.391544 -0.000000 -0.000002 0.000000 
27.095692 83.970688 6.714577 154.739903 -62.701567 160.823894 10.468978 -3.022133 1.885984 5.299426 -1.863419 -3.688213 0.000000 0.000000 0.000000 -3.740324 -4.710138 -2.529078 6.087830 13.825694 -1.303477 -12.333066 14.943291 -5.101973 0.000001 0.000000 -0.000000 -1.833838 -14.445305 -4.259449 0.000000 0.000000 0.000000 -24.484051 -9.447737 -47.266753 -14.703164 -28.284793 -17.623240 3.654420 -8.621934 6.264450 20.213246 -4.649945 10.411328 3.371630 17.053300 -9.307553 9.278327 14.738737 -1.340761 0.000001 -0.000001 -0.000000 -0.754225 0.208563 -13.245169 0.030191 -0.759583 -17.420319 -0.102891 -1.044191 -20.385683 -0.000000 0.000002 0.000001 2.446865 2.844495 -23.035247 -0.021100 -2.027796 -31.425192 0.012644 -2.399467 -34.994331 -0.000003 -0.000001 0.000000 0.752449 4.505420 -30.750260 -0.981760 -1.227662 -35.970962 -1.038118 -1.358018 -39.134703 0.000003 -0.000001 0.000002 -1.632804 3.694676 -37.232720 -0.949871 -0.779169 -32.064596 -2.238993 -0.224995 -50.000287 -0.000001 -0.000000 0.000001 -5.518100 24.192612 2.050976 0.000000 0.000000 0.000000 -13.471669 -20.142016 57.616621 14.645662 34.292525 -4.668614 13.381609 22.766226 12.759864 55.149577 18.649586 -29.698318 -0.442547 -14.180557 7.313154 21.666965 -29.244510 9.142355 0.000001 0.000003 -0.000002 5.673410 7.585014 36.844161 1.050417 3.824514 68.900257 0.499588 3.026025 62.196447 0.000000 -0.000002 -0.000005 -0.125691 1.886103 45.000756 -1.169034 3.204653 68.417691 -0.936425 1.813615 41.107548 -0.000000 0.000001 0.000001 -5.312004 1.216650 58.508801 -0.745230 1.667567 48.011292 -0.816498 1.840591 53.666562 -0.000000 0.000001 -0.000002 -7.756808 -9.376452 47.264001 -0.526052 1.541598 45.600511 -0.508192 0.803474 24.986625 0.000000 -0.000000 -0.000000 -59.814227 42.518932 57.157437 37.076234 -13.974537 -4.878039 5.776443 7.600591 0.716871 -0.203514 12.587398 -10.666443 -0.000000 -0.000000 0.000000 -41.869312 -13.237192 -30.518955 41.657553 -2.971404 6.292890 -10.103837 -3.776615 10.952272 0.957914 3.691109 0.220883 0.000000 -0.000001 0.000000 
26.969660 83.862709 6.200909 155.364196 -61.396666 161.622903 10.527166 -3.011399 1.804904 5.170758 -1.727730 -3.885309 0.000000 0.000000 0.000000 -4.258834 -4.169641 -2.589050 6.369384 14.108992 -1.231397 -12.373168 15.396894 -5.297318 -0.000001 0.000000 -0.000000 -1.831046 -14.578207 -4.183439 0.000000 0.000000 0.000000 -24.473702 -9.331604 -47.461171 -15.137511 -29.354869 -17.695159 3.798877 -9.351025 5.643282 20.213501 -4.650062 10.411465 3.371461 17.053442 -9.307596 9.278403 14.738705 -1.340751 0.000001 0.000001 -0.000001 -0.754164 0.208575 -13.245178 0.029934 -0.759670 -17.420372 -0.103001 -1.044307 -20.385671 -0.000000 0.000004 0.000000 2.446832 2.844516 -23.035254 -0.021143 -2.027666 -31.425195 0.012750 -2.399366 -34.994303 -0.000003 0.000000 -0.000001 0.752483 4.505310 -30.750263 -0.981626 -1.227886 -35.970898 -1.037942 -1.358219 -39.134672 -0.000001 0.000002 -0.000000 -1.632802 3.694670 -37.232765 -0.949719 -0.779216 -32.064583 -2.239032 -0.224799 -50.000263 -0.000001 0.000000 -0.000001 -5.543638 24.107523 2.123103 0.000000 0.000000 0.000000 -13.173074 -20.156863 57.392304 15.493927 34.171020 -5.133748 12.981447 22.876467 12.755354 55.149563 18.649587 -29.698318 -0.442548 -14.180560 7.313155 21.666967 -29.244507 9.142357 0.000001 -0.000003 0.000001 5.673405 7.585018 36.844161 1.050418 3.824518 68.900257 0.499582 3.026021 62.196447 0.000001 -0.000001 -0.000001 -0.125693 1.886107 45.000753 -1.169030 3.204651 68.417684 -0.936422 1.813619 41.107548 0.000001 -0.000002 -0.000002 -5.312008 1.216651 58.508801 -0.745227 1.667564 48.011288 -0.816492 1.840591 53.666558 -0.000002 0.000001 0.000001 -7.756808 -9.376453 47.264004 -0.526053 1.541598 45.600515 -0.508190 0.803472 24.986625 -0.000004 0.000001 0.000000 -61.398558 41.778105 58.071470 37.489973 -15.346127 -4.459590 6.922994 6.776140 2.437805 0.298203 13.288805 -11.910749 0.000000 0.000001 -0.000000 -42.390285 -12.924066 -29.936132 42.053249 -2.687179 6.339756 -10.555215 -3.215624 10.374915 1.268652 3.735550 0.082955 -0.000000 0.000001 -0.000000 
26.818911 83.766541 5.596378 155.911635 -60.133204 162.433360 10.547198 -3.002595 1.693476 5.077505 -1.603213 -4.097631 0.000000 0.000000 0.000000 -4.749401 -3.642995 -2.662465 6.469086 14.668552 -1.949851 -12.456452 15.384844 -4.709107 -0.000001 0.000000 -0.000000 -1.822007 -14.611906 -4.119290 0.000000 0.000000 0.000000 -24.396502 -9.365115 -47.587997 -15.736307 -30.089941 -17.677860 3.879474 -10.256081 4.806050 20.213723 -4.650150 10.411636 3.371310 17.053575 -9.307682 9.278474 14.738650 -1.340669 -0.000000 0.000000 -0.000002 -0.754161 0.208548 -13.245169 0.029644 -0.759759 -17.420365 -0.103047 -1.044338 -20.385646 -0.000000 0.000000 0.000000 2.446760 2.844555 -23.035236 -0.021220 -2.027542 -31.425198 0.012907 -2.399232 -34.994351 -0.000001 0.000003 -0.000001 0.752443 4.505236 -30.750229 -0.981499 -1.228068 -35.970894 -1.037768 -1.358439 -39.134689 0.000002 0.000001 0.000001 -1.632803 3.694636 -37.232737 -0.949587 -0.779277 -32.064600 -2.239140 -0.224670 -50.000280 -0.000005 -0.000000 -0.000001 -5.569919 24.018603 2.202748 0.000000 0.000000 0.000000 -12.836171 -20.262268 57.156427 16.241520 34.139628 -5.554856 12.609184 23.011151 12.781496 55.149563 18.649587 -29.698318 -0.442548 -14.180561 7.313156 21.666969 -29.244507 9.142359 0.000002 0.000003 -0.000003 5.673405 7.585012 36.844165 1.050414 3.824516 68.900257 0.499580 3.026025 62.196447 -0.000001 -0.000003 -0.000001 -0.125693 1.886104 45.000756 -1.169031 3.204651 68.417684 -0.936424 1.813618 41.107548 0.000002 0.000002 0.000002 -5.312003 1.216648 58.508807 -0.745221 1.667567 48.011285 -0.816493 1.840592 53.666558 0.000000 0.000000 0.000000 -7.756806 -9.376453 47.264004 -0.526053 1.541599 45.600508 -0.508190 0.803474 24.986623 -0.000002 0.000000 -0.000000 -62.634262 41.100400 58.625378 37.582324 -16.506520 -4.066835 8.103190 5.938206 3.911312 1.086197 13.678871 -12.987565 -0.000001 0.000002 -0.000000 -42.854424 -12.592034 -29.377914 42.503202 -2.425973 6.341927 -11.103290 -2.678530 9.832909 1.545064 3.776544 -0.003042 -0.000000 0.000000 0.000000 
26.619629 83.680710 4.990233 156.412684 -58.957080 163.228243 10.557626 -3.014126 1.575968 5.035987 -1.495804 -4.316921 0.000000 0.000000 0.000000 -5.195341 -3.142234 -2.749181 6.328192 15.254727 -2.740320 -12.369769 15.288064 -3.976919 0.000001 -0.000000 -0.000000 -1.812258 -14.622948 -4.069553 0.000000 0.000000 0.000000 -24.236668 -9.343723 -47.660247 -16.237095 -30.888824 -17.606686 3.734397 -11.098181 3.912871 20.213998 -4.650243 10.411767 3.371063 17.053719 -9.307727 9.278594 14.738565 -1.340641 -0.000000 -0.000001 0.000003 -0.754112 0.208539 -13.245153 0.029423 -0.759819 -17.420333 -0.103108 -1.044403 -20.385661 0.000000 -0.000003 -0.000000 2.446694 2.844615 -23.035254 -0.021266 -2.027404 -31.425202 0.013064 -2.399055 -34.994331 0.000003 0.000003 0.000002 0.752483 4.505195 -30.750229 -0.981352 -1.228248 -35.970901 -1.037639 -1.358650 -39.134686 0.000001 -0.000000 0.000000 -1.632767 3.694684 -37.232737 -0.949475 -0.779377 -32.064600 -2.239223 -0.224532 -50.000267 0.000001 0.000001 -0.000000 -5.574963 23.957886 2.204162 0.000000 0.000000 0.000000 -12.495524 -20.437475 56.950974 16.891041 34.094740 -5.909307 12.213320 23.228775 12.778842 55.149567 18.649586 -29.698328 -0.442549 -14.180560 7.313159 21.666965 -29.244507 9.142358 0.000002 0.000001 -0.000003 5.673406 7.585019 36.844165 1.050413 3.824516 68.900257 0.499582 3.026024 62.196447 -0.000001 0.000000 -0.000000 -0.125694 1.886106 45.000749 -1.169033 3.204652 68.417684 -0.936428 1.813617 41.107545 0.000002 -0.000002 0.000002 -5.312002 1.216651 58.508801 -0.745225 1.667563 48.011292 -0.816494 1.840590 53.666558 0.000001 0.000001 0.000001 -7.756807 -9.376454 47.264001 -0.526055 1.541599 45.600511 -0.508190 0.803473 24.986621 -0.000001 -0.000000 -0.000001 -63.623622 40.449377 58.899576 37.479174 -17.504545 -3.713359 9.274019 5.097520 5.248514 2.064381 13.748065 -13.893345 0.000000 -0.000003 0.000000 -43.207729 -12.254485 -28.879874 42.941601 -2.183391 6.311552 -11.674483 -2.191604 9.383608 1.788384 3.812665 -0.069957 -0.000000 -0.000002 0.000000 
